<?xml version="1.0" encoding="UTF-8" standalone="no"?>
<svg
   width="768"
   height="256"
   viewBox="0 0 768 256"
   fill="none"
   version="1.1"
   id="svg1"
   xmlns="http://www.w3.org/2000/svg"
   xmlns:svg="http://www.w3.org/2000/svg">
  <defs
     id="defs1" />
  <path
     d="m 165.12315,112.53556 c 10.521,-16.628297 21.25,-27.180597 22.836,-76.104997 -13.955,23.6628 -31.716,32.2965 -54.869,41.8895 2.854,1.7055 -0.952,18.2268 -9.833,29.098497 -7.313,8.954 -19.298,28.012 -19.298,50.012 0,48 25.631,64.5 61,80 43.6,16.4 79.5,9.167 90,7 41.5,-10.5 68.428,-39.283 77,-48 40,-40.678 87.006,-70.895 116,-72 52.5,-2 87.793,15 119,64.5 29,46 76.5,50.086 102,46.5 51.2,-7.2 66.333,-77.667 65,-110 -17.5,56 -44.5,86 -66,86 -44.5,0 -64.5,-29 -79,-59 -19.826,-41.019 -70.5,-83.239597 -141,-70.999997 -72,12.5 -111.162,46.999997 -147,80.999997 -19.5,18.5 -47.5,44.5 -83,39 -37.271,-5.774 -57.5,-30 -61.716,-55 -0.915,-5.42 -0.508,-19.058 8.88,-33.895 z"
     fill="#8aa12c"
     stroke="#000000"
     id="path1" />
  <path
     d="m 115.12115,16.752463 c 50.714,-27.9943 103.407,17.9721 52.834,53.4711 -11.565,8.1178 -27.415,9.5947 -44.559,14.6409 -25.001999,7.359 -29.421999,16.760697 -45.832999,17.824097 -21.3389,1.382 -41.9598,-15.298797 -12.0942,-36.920897 0.9121,-0.6603 1.8077,-1.2805 2.706199,-1.9097 0,-8.5935 10.980001,-18.1419 16.298001,-16.5505 1.224999,-1.7068 2.525,-3.6059 3.912,-5.7291 9.766,-14.9504 18.896999,-20.499 26.735999,-24.8259 z"
     fill="#aac832"
     id="path2" />
  <path
     d="m 68.17515,63.857963 c -0.8985,0.6292 -1.7941,1.2494 -2.706199,1.9097 -29.865601,21.6221 -9.244701,38.302897 12.0942,36.920897 16.411,-1.0634 20.830999,-10.465097 45.832999,-17.824097 17.144,-5.0462 32.994,-6.5231 44.559,-14.6409 50.573,-35.499 -2.12,-81.4654 -52.834,-53.4711 -7.839,4.3269 -16.97,9.8755 -26.736,24.8259 -1.387,2.1232 -2.687,4.0223 -3.912,5.7291 m -16.298,16.5505 c 4.5357,-3.1763 9.142,-6.5824 16.298001,-16.5505 m -16.298001,16.5505 c 0,-8.5935 10.98,-18.1419 16.298001,-16.5505"
     stroke="#000000"
     id="path3" />
  <path
     d="m 33.95915,126.24756 c 1.5888,-18.982 10.486,-25.417 18.1122,-32.816997 4.4485,4.8261 8.261601,7.399997 15.8878,9.008997 -10.485999,-1.609 -21.2897,7.721 -23.1963,27.991 -1.5887,-5.47 -1.271,-15.122 0,-19.948 -3.813,1.03 -10.1682,13.406 -10.8037,15.765 z"
     fill="#d72141"
     stroke="#000000"
     id="path4" />
  <path
     d="m 139.55615,24.517563 c 0,-7.0783 10.509,-13.83483 15.285,-15.44352 13.056,0 31.526,10.93912 33.118,25.73912 -8.916,-7.4 -28.341,-16.7304 -48.403,-10.2956 z"
     fill="#623210"
     id="path5" />
  <path
     d="m 133.18715,29.021863 c 15.922,-4.1826 39.442,5.9304 53.772,20.4087 -1.911,4.5043 -4.223,7.1739 -9,12 -8.279,-15.1217 -28.85,-27.5826 -47.956,-24.0435 -10.19,1.8876 -18.658,3.8609 -28.023,15.4435 -18.468999,22.8435 -25.475099,25.0957 -28.0226,26.3826 -2.0539,1.0376 -6.687299,1.6891 -1.910699,-1.9304 7.961299,-6.0326 12.971299,-6.7565 26.1123,-26.3826 7.323999,-10.9392 17.831999,-16.087 27.385999,-18.6609 -0.319,-0.858 -3.185,-14.4783 0,-19.94783 6.05,-2.25217 10.827,-3.53913 15.285,-3.86087 -2.335,1.3942 -11.464,2.57391 -7.643,20.5913 z"
     fill="#623210"
     id="path6" />
  <path
     d="m 135.73515,64.734863 c -7.961,-2.0503 -14.967,2.2522 -21.017,6.1131 3.503,3.8609 0.107,7.7217 -2.759,11.5826 7.006,-4.1826 17.376,-7.4348 24,-1 8.598,-2.2522 24.765,-5.2783 34,-13 -4.458,-0.2145 -17.984,0.487 -34.224,-3.6957 z"
     fill="#623210"
     id="path7" />
  <path
     d="m 139.55615,24.517563 c 0,-7.0783 10.509,-13.83483 15.285,-15.44352 13.056,0 31.526,10.93912 33.118,25.73912 -8.916,-7.4 -28.341,-16.7304 -48.403,-10.2956 z"
     stroke="#000000"
     id="path8" />
  <path
     d="m 133.18715,29.021863 c 15.922,-4.1826 39.442,5.9304 53.772,20.4087 -1.911,4.5043 -4.223,7.1739 -9,12 -8.279,-15.1217 -28.85,-27.5826 -47.956,-24.0435 -10.19,1.8876 -18.658,3.8609 -28.023,15.4435 -18.468999,22.8435 -25.475099,25.0957 -28.0226,26.3826 -2.0539,1.0376 -6.687299,1.6891 -1.910699,-1.9304 7.961299,-6.0326 12.971299,-6.7565 26.1123,-26.3826 7.323999,-10.9392 17.831999,-16.087 27.385999,-18.6609 -0.319,-0.858 -3.185,-14.4783 0,-19.94783 6.05,-2.25217 10.827,-3.53913 15.285,-3.86087 -2.335,1.3942 -11.464,2.57391 -7.643,20.5913 z"
     stroke="#000000"
     id="path9" />
  <path
     d="m 135.73515,64.734863 c -7.961,-2.0503 -14.967,2.2522 -21.017,6.1131 3.503,3.8609 0.107,7.7217 -2.759,11.5826 7.006,-4.1826 17.376,-7.4348 24,-1 8.598,-2.2522 24.765,-5.2783 34,-13 -4.458,-0.2145 -17.984,0.487 -34.224,-3.6957 z"
     stroke="#000000"
     id="path10" />
  <path
     d="m 152.69815,87.558963 c 8.196,-0.633 22.065,-4.1146 30.261,-10.1284 -0.315,1.8991 -2.522,10.7615 -7.565,18.9908 l -0.14,0.0104 c -8.409,0.6258 -11.897,0.8854 -22.556,-8.8728 z"
     fill="#43230c"
     id="path11" />
  <path
     d="m 142.29615,103.38456 c 4.413,2.532 9.141,5.064 26.163,4.431 v 0 c -1.891,2.849 -6.304,9.496 -10.087,18.358 -6.935,-1.899 -15.446,-5.064 -16.076,-22.789 z"
     fill="#43230c"
     id="path12" />
  <path
     d="m 124.95915,120.79256 c 17.022,11.078 18.283,12.028 31.207,14.244 -1.207,7.394 -1,15.394 3.793,26.394 -28,-9.5 -33.739,-24.939 -35,-40.638 z"
     fill="#43230c"
     id="path13" />
  <path
     d="m 124.95915,181.43056 c 12,-6 24,-11 39,-13 4,5 5.5,8.5 15,17 -13,5.5 -25,9.5 -54,-4 z"
     fill="#43230c"
     id="path14" />
  <path
     d="m 180.95915,229.43056 c -2,-12.5 -2,-26.5 7,-38 7.5,4 13.5,7 30,10 -8,14 -15.5,19 -37,28 z"
     fill="#43230c"
     id="path15" />
  <path
     d="m 243.45915,233.43056 c -8.5,-9.5 -19.5,-22 -17.5,-31 12.5,-1 24,-4 34,-8 1.167,7.333 -2,27 -16.5,39 z"
     fill="#43230c"
     id="path16" />
  <path
     d="m 297.45915,209.93056 c -12,-2.5 -19,-6 -30.5,-19.5 10,-7 19,-13.5 28,-22 4.5,13 9.5,19.5 2.5,41.5 z"
     fill="#43230c"
     id="path17" />
  <path
     d="m 332.95915,178.43056 c -12.5,-4 -21,-5 -31,-16 8.5,-9.5 13.5,-14 23,-21 2.333,4.167 9.5,21 8,37 z"
     fill="#43230c"
     id="path18" />
  <path
     d="m 365.95915,153.43056 c -11.5,-4 -23,-11.5 -32,-20 14,-11 22.5,-17 31,-22 3,13.5 4.5,25 1,42 z"
     fill="#43230c"
     id="path19" />
  <path
     d="m 404.95915,128.93056 c -12.5,-3.5 -18.5,-12 -29,-23.5 13,-6.999997 22.5,-10.999997 31,-12.999997 3,13.499997 3,23.499997 -2,36.499997 z"
     fill="#43230c"
     id="path20" />
  <path
     d="m 443.45915,117.43056 c -12,-9.5 -16.5,-17.999997 -21.5,-29.999997 17,-4.5 19.5,-5 34,-7 -1.5,15.5 -4,25.999997 -12.5,36.999997 z"
     fill="#43230c"
     id="path21" />
  <path
     d="m 483.95915,115.43056 c -8.5,-14.5 -9.5,-23.999997 -10,-35.999997 14,0 20,1 35,5 -3,10 -15.5,23.499997 -25,30.999997 z"
     fill="#43230c"
     id="path22" />
  <path
     d="m 521.95915,128.43056 c -2.5,-13 -1.5,-25 2,-37.999997 12,5 17,7.5 28,16.999997 -7,10 -16,17.5 -30,21 z"
     fill="#43230c"
     id="path23" />
  <path
     d="m 550.45915,145.43056 c 0.5,-10.5 3.5,-18 10.5,-30 8,6 15,15 19,22 -6.5,5 -15,8 -29.5,8 z"
     fill="#43230c"
     id="path24" />
  <path
     d="m 569.95915,168.43056 c 3,-9.5 8,-17 15,-23 4,6.5 7,13 13,24 -11,2 -18,1.5 -28,-1 z"
     fill="#43230c"
     id="path25" />
  <path
     d="m 589.95915,200.43056 c 3.5,-9 6.5,-21 12,-25 6.5,9.5 9.5,12 16.5,19.5 -9,4 -16.5,5 -28.5,5.5 z"
     fill="#43230c"
     id="path26" />
  <path
     d="m 619.95915,221.93056 c 4,-5.5 7,-12 6.5,-21.5 8,4.5 12,6 20.5,9 -2.5,4.333 -9,14.1 -27,12.5 z"
     fill="#43230c"
     id="path27" />
  <path
     d="m 651.95915,229.43056 c 5.5,-6 5.5,-11.5 5,-18 12,0 13,0 23,-2 0.167,4.5 -3.6,14.8 -28,20 z"
     fill="#43230c"
     id="path28" />
  <path
     d="m 152.69815,87.558963 c 8.196,-0.633 22.065,-4.1146 30.261,-10.1284 -0.315,1.8991 -2.522,10.7615 -7.565,18.9908 l -0.14,0.0104 c -8.409,0.6258 -11.897,0.8854 -22.556,-8.8728 z"
     stroke="#000000"
     id="path29" />
  <path
     d="m 142.29615,103.38456 c 4.413,2.532 9.141,5.064 26.163,4.431 v 0 c -1.891,2.849 -6.304,9.496 -10.087,18.358 -6.935,-1.899 -15.446,-5.064 -16.076,-22.789 z"
     stroke="#000000"
     id="path30" />
  <path
     d="m 124.95915,120.79256 c 17.022,11.078 18.283,12.028 31.207,14.244 -1.207,7.394 -1,15.394 3.793,26.394 -28,-9.5 -33.739,-24.939 -35,-40.638 z"
     stroke="#000000"
     id="path31" />
  <path
     d="m 124.95915,181.43056 c 12,-6 24,-11 39,-13 4,5 5.5,8.5 15,17 -13,5.5 -25,9.5 -54,-4 z"
     stroke="#000000"
     id="path32" />
  <path
     d="m 180.95915,229.43056 c -2,-12.5 -2,-26.5 7,-38 7.5,4 13.5,7 30,10 -8,14 -15.5,19 -37,28 z"
     stroke="#000000"
     id="path33" />
  <path
     d="m 243.45915,233.43056 c -8.5,-9.5 -19.5,-22 -17.5,-31 12.5,-1 24,-4 34,-8 1.167,7.333 -2,27 -16.5,39 z"
     stroke="#000000"
     id="path34" />
  <path
     d="m 297.45915,209.93056 c -12,-2.5 -19,-6 -30.5,-19.5 10,-7 19,-13.5 28,-22 4.5,13 9.5,19.5 2.5,41.5 z"
     stroke="#000000"
     id="path35" />
  <path
     d="m 332.95915,178.43056 c -12.5,-4 -21,-5 -31,-16 8.5,-9.5 13.5,-14 23,-21 2.333,4.167 9.5,21 8,37 z"
     stroke="#000000"
     id="path36" />
  <path
     d="m 365.95915,153.43056 c -11.5,-4 -23,-11.5 -32,-20 14,-11 22.5,-17 31,-22 3,13.5 4.5,25 1,42 z"
     stroke="#000000"
     id="path37" />
  <path
     d="m 404.95915,128.93056 c -12.5,-3.5 -18.5,-12 -29,-23.5 13,-6.999997 22.5,-10.999997 31,-12.999997 3,13.499997 3,23.499997 -2,36.499997 z"
     stroke="#000000"
     id="path38" />
  <path
     d="m 443.45915,117.43056 c -12,-9.5 -16.5,-17.999997 -21.5,-29.999997 17,-4.5 19.5,-5 34,-7 -1.5,15.5 -4,25.999997 -12.5,36.999997 z"
     stroke="#000000"
     id="path39" />
  <path
     d="m 483.95915,115.43056 c -8.5,-14.5 -9.5,-23.999997 -10,-35.999997 14,0 20,1 35,5 -3,10 -15.5,23.499997 -25,30.999997 z"
     stroke="#000000"
     id="path40" />
  <path
     d="m 521.95915,128.43056 c -2.5,-13 -1.5,-25 2,-37.999997 12,5 17,7.5 28,16.999997 -7,10 -16,17.5 -30,21 z"
     stroke="#000000"
     id="path41" />
  <path
     d="m 550.45915,145.43056 c 0.5,-10.5 3.5,-18 10.5,-30 8,6 15,15 19,22 -6.5,5 -15,8 -29.5,8 z"
     stroke="#000000"
     id="path42" />
  <path
     d="m 569.95915,168.43056 c 3,-9.5 8,-17 15,-23 4,6.5 7,13 13,24 -11,2 -18,1.5 -28,-1 z"
     stroke="#000000"
     id="path43" />
  <path
     d="m 589.95915,200.43056 c 3.5,-9 6.5,-21 12,-25 6.5,9.5 9.5,12 16.5,19.5 -9,4 -16.5,5 -28.5,5.5 z"
     stroke="#000000"
     id="path44" />
  <path
     d="m 619.95915,221.93056 c 4,-5.5 7,-12 6.5,-21.5 8,4.5 12,6 20.5,9 -2.5,4.333 -9,14.1 -27,12.5 z"
     stroke="#000000"
     id="path45" />
  <path
     d="m 651.95915,229.43056 c 5.5,-6 5.5,-11.5 5,-18 12,0 13,0 23,-2 0.167,4.5 -3.6,14.8 -28,20 z"
     stroke="#000000"
     id="path46" />
  <path
     d="m 115.94315,72.262963 c 0.957,1.8847 0.692,4.2368 -0.635,6.5616 -1.324,2.3205 -3.68,4.5543 -6.767,6.1217 -3.088,1.5675 -6.281,2.1511 -8.936,1.8508 -2.66,-0.3009 -4.715,-1.4751 -5.672,-3.3598 -0.957,-1.8847 -0.691999,-4.2368 0.635001,-6.5616 1.323999,-2.3206 3.68,-4.5543 6.766999,-6.1218 3.087,-1.5674 6.281,-2.1511 8.936,-1.8507 2.66,0.3009 4.715,1.4751 5.672,3.3598 z"
     fill="#ff8a00"
     stroke="#000000"
     id="path47" />
  <path
     d="m 101.80515,71.790963 c -0.035,4.1375 2.176,8.2993 5.624,12.461 0,-5.7531 -1.539,-9.8907 -5.624,-12.461 z"
     fill="#000000"
     stroke="#000000"
     id="path48" />
</svg>
