<?xml version="1.0" encoding="UTF-8" standalone="no"?>
<svg
   width="256"
   height="256"
   viewBox="0 0 256 256"
   fill="none"
   version="1.1"
   id="svg1"
   xmlns="http://www.w3.org/2000/svg"
   xmlns:svg="http://www.w3.org/2000/svg">
  <defs
     id="defs1" />
  <path
     d="M211 200C227.586 174 244.5 157.5 247 81C225 118 197 131.5 160.5 146.5C165 149.167 159 175 145 192C133.471 206 117.5 218.5 113 253H197C193.833 245 196.2 223.2 211 200Z"
     fill="#8AA12C"
     stroke="black"
     id="path1" />
  <path
     d="M132 50C211.67 6.02256 294.447 78.2331 215 134C196.832 146.753 171.933 149.073 145 157C105.724 168.56 98.7802 183.33 73 185C39.4771 187.171 7.08299 160.967 54 127C55.4329 125.963 56.8399 124.988 58.2513 124C58.2513 110.5 75.5 95.5 83.8544 98C85.779 95.3188 87.8211 92.3355 90 89C105.343 65.5138 119.686 56.7973 132 50Z"
     fill="#AAC832"
     id="path2" />
  <path
     d="M58.2513 124C56.8399 124.988 55.4329 125.963 54 127C7.08299 160.967 39.4771 187.171 73 185C98.7802 183.33 105.724 168.56 145 157C171.933 149.073 196.832 146.753 215 134C294.447 78.2331 211.67 6.02256 132 50C119.686 56.7973 105.343 65.5138 90 89C87.8211 92.3355 85.779 95.3188 83.8544 98M58.2513 124C65.3766 119.01 72.6135 113.659 83.8544 98M58.2513 124C58.2513 110.5 75.5 95.5 83.8544 98"
     stroke="black"
     id="path3" />
  <path
     d="M4.5 221C7 191.5 21 181.5 33 170C40 177.5 46 181.5 58 184C41.5 181.5 24.5 196 21.5 227.5C19 219 19.5 204 21.5 196.5C15.5 198.1 5.5 217.333 4.5 221Z"
     fill="#D72141"
     stroke="black"
     id="path4" />
  <path
     d="M170 62C170 51 186.5 40.5 194 38C214.5 38 243.5 55 246 78C232 66.5 201.5 52 170 62Z"
     fill="#623210"
     id="path5" />
  <path
     d="M160 69C185 62.5 221.5 78.5 244 101C241 108 238.5 112.5 231 120C218 96.5 185 76.5 155 82C139 84.9333 125.704 88 111 106C82 141.5 71 145 67 147C63.7751 148.612 56.5 149.625 64 144C76.5 134.625 84.3676 133.5 105 103C116.5 86 133 78 148 74C147.5 72.6667 143 51.5 148 43C157.5 39.5 165 37.5 172 37C168.333 39.1667 154 41 160 69Z"
     fill="#623210"
     id="path6" />
  <path
     d="M164 124.5C151.5 121.314 140.5 128 131 134C136.5 140 134.5 145 130 151C141 144.5 153.6 142 164 152C177.5 148.5 202.5 144 217 132C210 131.667 189.5 131 164 124.5Z"
     fill="#623210"
     id="path7" />
  <path
     d="M170 62C170 51 186.5 40.5 194 38C214.5 38 243.5 55 246 78C232 66.5 201.5 52 170 62Z"
     stroke="black"
     id="path8" />
  <path
     d="M160 69C185 62.5 221.5 78.5 244 101C241 108 238.5 112.5 231 120C218 96.5 185 76.5 155 82C139 84.9333 125.704 88 111 106C82 141.5 71 145 67 147C63.7751 148.612 56.5 149.625 64 144C76.5 134.625 84.3676 133.5 105 103C116.5 86 133 78 148 74C147.5 72.6667 143 51.5 148 43C157.5 39.5 165 37.5 172 37C168.333 39.1667 154 41 160 69Z"
     stroke="black"
     id="path9" />
  <path
     d="M164 124.5C151.5 121.314 140.5 128 131 134C136.5 140 134.5 145 130 151C141 144.5 153.6 142 164 152C177.5 148.5 202.5 144 217 132C210 131.667 189.5 131 164 124.5Z"
     stroke="black"
     id="path10" />
  <path
     d="M191 160C204 159 226 153.5 239 144C238.5 147 235 161 227 174L226.779 174.016C213.439 175.005 207.907 175.415 191 160Z"
     fill="#43230C"
     id="path11" />
  <path
     d="M174.5 185C181.5 189 189 193 216 192L216 192C213 196.5 206 207 200 221C189 218 175.5 213 174.5 185Z"
     fill="#43230C"
     id="path12" />
  <path
     d="M147 212.5C174 230 176 231.5 196.5 235C195 246 196 249.5 197 253H165.5C160.5 250.167 149 237.3 147 212.5Z"
     fill="#43230C"
     id="path13" />
  <path
     d="M191 160C204 159 226 153.5 239 144C238.5 147 235 161 227 174L226.779 174.016C213.439 175.005 207.907 175.415 191 160Z"
     stroke="black"
     id="path14" />
  <path
     d="M174.5 185C181.5 189 189 193 216 192L216 192C213 196.5 206 207 200 221C189 218 175.5 213 174.5 185Z"
     stroke="black"
     id="path15" />
  <path
     d="M147 212.5C174 230 176 231.5 196.5 235C195 246 196 249.5 197 253H165.5C160.5 250.167 149 237.3 147 212.5Z"
     stroke="black"
     id="path16" />
  <path
     d="M133.546 137.074C135.107 140.148 134.657 143.948 132.542 147.653C130.431 151.353 126.685 154.899 121.793 157.383C116.9 159.867 111.827 160.798 107.594 160.32C103.355 159.84 100.022 157.961 98.4611 154.887C96.9005 151.813 97.3506 148.013 99.4647 144.308C101.576 140.608 105.322 137.062 110.215 134.578C115.107 132.094 120.18 131.163 124.414 131.642C128.652 132.121 131.985 134.001 133.546 137.074Z"
     fill="#FF8A00"
     stroke="black"
     id="path17" />
  <path
     d="M111.083 136.462C111.028 142.962 114.5 149.5 119.917 156.038C119.917 147 117.5 140.5 111.083 136.462Z"
     fill="black"
     stroke="black"
     id="path18" />
</svg>
